<?xml version="1.0" standalone="no"?>
<!DOCTYPE svg PUBLIC "-//W3C//DTD SVG 20010904//EN"
 "http://www.w3.org/TR/2001/REC-SVG-20010904/DTD/svg10.dtd">
<svg version="1.0" xmlns="http://www.w3.org/2000/svg"
 width="789.000000pt" height="202.000000pt" viewBox="0 0 789.000000 202.000000"
 preserveAspectRatio="xMidYMid meet">
<metadata>
Created by potrace 1.16, written by Peter Selinger 2001-2019
</metadata>
<g transform="translate(0.000000,202.000000) scale(0.100000,-0.100000)"
fill="#000000" stroke="none">
<path d="M2198 1983 c-40 -46 -56 -189 -31 -288 8 -33 19 -127 23 -210 14
-250 28 -299 74 -256 17 16 26 19 31 10 13 -20 27 18 19 53 -6 30 -7 31 -20
13 -12 -15 -14 -16 -14 -3 0 9 8 19 18 23 16 6 16 7 -1 16 -14 8 -15 14 -6 31
8 14 8 18 0 14 -6 -4 -13 5 -17 21 -8 38 -15 64 -21 87 -4 15 -1 18 15 14 15
-4 23 3 36 29 9 18 16 44 16 56 0 12 7 41 15 64 8 23 18 85 21 137 l7 96 -24
2 c-13 0 -31 2 -39 2 -8 1 -19 -3 -23 -9 -4 -6 -7 -1 -5 10 2 11 -2 19 -8 18
-6 -1 -10 15 -10 40 1 35 -2 42 -20 45 -11 2 -27 -5 -36 -15z"/>
<path d="M1853 1938 c-44 -11 -55 -38 -57 -127 -1 -62 5 -95 32 -176 18 -55
40 -110 48 -122 10 -16 16 -61 19 -143 3 -89 8 -126 21 -145 15 -23 33 -37 19
-15 -6 10 13 15 48 12 18 -2 23 18 7 34 -11 11 -1 56 11 48 5 -3 9 -15 9 -28
0 -30 23 -77 35 -72 22 7 8 103 -23 162 -27 51 -31 71 -33 149 -1 50 1 111 5
137 6 34 4 59 -7 90 -9 24 -18 56 -22 71 -5 24 -8 27 -21 16 -18 -15 -21 -12
-29 34 -7 38 6 51 22 22 7 -12 10 -12 20 4 10 15 9 22 -1 31 -24 19 -70 27
-103 18z"/>
<path d="M2531 1891 c-17 -11 -41 -77 -40 -111 1 -20 2 -21 6 -5 6 24 26 48
21 25 -2 -9 3 -14 12 -12 8 2 12 1 8 -3 -3 -4 -2 -19 2 -35 7 -23 4 -34 -16
-57 -26 -30 -30 -48 -13 -58 7 -5 4 -15 -9 -29 -31 -33 -43 -87 -38 -164 4
-57 1 -80 -14 -116 -20 -43 -18 -94 1 -64 6 9 11 10 17 2 15 -22 50 -22 70 0
10 11 27 26 36 31 21 12 12 47 -11 38 -8 -3 -19 0 -24 8 -8 12 -10 12 -18 -1
-5 -8 -7 -18 -4 -23 3 -5 -4 -17 -16 -28 -21 -20 -21 -20 -22 3 -6 135 -3 220
9 261 18 59 36 74 30 23 -3 -24 -1 -33 6 -26 18 18 26 11 16 -15 -5 -14 -6
-25 -1 -25 9 0 27 57 23 72 -2 10 36 21 47 13 29 -17 48 143 20 169 -9 8 -10
7 -6 -6 4 -10 2 -18 -3 -18 -16 0 -12 34 9 81 15 33 21 40 26 27 4 -9 4 -22 0
-28 -3 -5 -2 -10 3 -10 6 0 13 -28 17 -62 7 -54 9 -60 18 -40 15 34 -19 137
-56 168 -29 25 -79 32 -106 15z"/>
<path d="M5607 1790 c-25 -22 -61 -64 -80 -93 -51 -77 -64 -86 -77 -52 -5 14
-10 30 -10 34 0 16 -41 50 -54 45 -27 -10 -20 -508 10 -692 4 -27 9 -33 27
-30 21 3 22 9 24 93 2 50 5 100 8 112 3 13 30 39 63 61 123 85 197 195 228
342 12 58 13 84 4 124 -23 107 -65 124 -143 56z m97 4 c32 -32 10 -210 -39
-309 -30 -61 -91 -136 -148 -181 -68 -54 -70 -52 -66 94 4 118 6 131 34 187
39 79 60 109 119 173 51 54 74 63 100 36z"/>
<path d="M7368 1453 c-36 -41 -69 -123 -132 -328 -22 -70 -37 -44 -57 100 -12
88 -22 115 -45 115 -20 0 -31 -33 -45 -141 -16 -128 -17 -191 -1 -196 9 -4 12
12 12 56 0 64 17 160 30 175 9 9 26 -42 36 -109 10 -62 31 -97 57 -93 17 2 24
14 33 53 41 171 110 338 142 343 13 2 22 -4 27 -17 3 -12 1 -111 -5 -221 -14
-221 -9 -283 23 -350 19 -38 26 -45 52 -45 26 0 33 7 57 55 16 30 48 107 72
170 24 63 47 123 51 133 4 10 3 17 -4 17 -7 0 -14 -8 -17 -17 -4 -10 -14 -36
-23 -58 -10 -22 -37 -86 -61 -142 -40 -95 -61 -122 -73 -90 -3 6 -3 116 0 242
6 243 1 290 -38 339 -24 31 -68 35 -91 9z"/>
<path d="M6813 1454 c-38 -16 -82 -159 -83 -271 0 -41 -2 -44 -76 -98 -42 -31
-82 -54 -90 -51 -9 4 -14 21 -14 50 0 62 -46 245 -67 268 -23 26 -80 19 -129
-14 -43 -29 -94 -128 -124 -238 -17 -64 -91 -191 -110 -187 -12 2 -14 20 -12
107 4 95 2 108 -17 132 -12 15 -34 28 -49 30 -26 3 -27 5 -27 68 -1 75 -15
107 -51 116 -18 5 -32 0 -49 -16 -32 -30 -65 -119 -65 -175 0 -50 18 -73 62
-82 28 -6 30 -8 24 -42 -7 -45 -55 -140 -78 -155 -28 -17 -38 3 -59 125 -17
106 -30 141 -45 126 -4 -3 -1 -48 5 -99 14 -111 49 -198 80 -198 40 0 81 61
116 170 46 143 70 145 70 4 0 -123 21 -177 71 -182 37 -4 49 9 100 103 46 86
42 81 56 67 23 -23 48 -12 122 53 41 36 79 65 84 65 5 0 13 -52 17 -115 l7
-116 -70 -122 c-127 -222 -191 -383 -162 -411 10 -8 11 -7 8 4 -3 8 1 20 9 25
12 9 39 72 68 160 25 76 119 250 138 253 15 3 17 -8 19 -110 3 -139 -2 -257
-12 -321 -5 -37 -4 -50 6 -54 8 -3 11 -10 7 -16 -4 -6 -1 -7 7 -2 13 8 11 -19
-5 -70 -6 -18 -5 -18 5 -3 6 10 20 46 32 80 19 57 22 92 27 348 6 273 7 286
29 321 26 42 130 125 141 113 4 -5 16 -30 25 -56 19 -51 65 -98 98 -98 28 0
75 54 90 103 17 57 16 270 0 326 -22 73 -74 107 -129 85z m102 -69 c30 -59 33
-239 7 -314 -23 -63 -45 -91 -70 -91 -52 0 -76 85 -70 248 6 151 30 206 88
200 18 -2 31 -14 45 -43z m-431 -67 c22 -31 20 -80 -4 -105 -10 -12 -58 -54
-105 -94 -103 -86 -117 -84 -90 13 22 79 61 153 98 184 36 31 81 31 101 2z"/>
<path d="M3297 1308 c8 -207 35 -313 78 -313 15 0 24 15 41 62 25 74 64 133
111 169 27 21 37 23 48 14 25 -21 17 -58 -27 -122 -52 -78 -86 -175 -94 -271
-6 -69 -5 -76 15 -86 45 -25 114 40 145 136 18 54 36 190 29 210 -3 7 5 28 17
47 l21 35 -28 15 c-16 8 -34 25 -41 38 -7 13 -22 30 -33 37 -26 16 -53 -1
-126 -78 -29 -30 -56 -52 -59 -48 -4 4 -11 51 -17 106 -9 98 -10 100 -38 110
-16 5 -29 17 -29 25 0 9 -4 16 -8 16 -5 0 -7 -46 -5 -102z m306 -243 c14 -34
-23 -187 -55 -235 -31 -45 -56 -60 -68 -40 -25 39 -3 110 77 248 26 45 37 51
46 27z"/>
<path d="M3847 1348 c-96 -128 -127 -342 -63 -438 18 -27 34 -40 49 -40 29 0
82 56 132 137 21 35 43 67 50 73 17 14 26 -22 26 -117 1 -81 5 -69 -98 -263
-132 -247 -183 -468 -134 -577 20 -44 47 -59 84 -47 121 37 181 225 195 615
l7 197 38 53 c20 30 47 65 58 79 l21 25 22 -28 c12 -15 29 -27 38 -27 9 0 50
32 92 71 41 39 79 68 84 65 14 -8 22 -178 11 -227 -6 -24 -21 -61 -35 -82 -50
-76 -166 -309 -185 -370 -21 -69 -35 -216 -25 -268 7 -41 47 -86 81 -95 35 -9
82 13 133 60 95 87 111 155 118 501 3 149 10 284 15 300 16 52 117 145 127
117 5 -16 32 4 32 24 0 30 -78 6 -127 -38 -33 -30 -53 -17 -53 34 0 47 -47
245 -63 266 -18 22 -97 15 -134 -14 -35 -26 -83 -94 -83 -116 0 -30 -55 -127
-107 -190 -30 -37 -59 -68 -63 -68 -4 0 -11 48 -14 107 -8 107 -19 149 -36
138 -5 -3 -30 -48 -54 -99 -51 -105 -122 -193 -149 -183 -39 15 -9 156 59 286
24 47 44 92 44 101 0 23 -38 70 -55 70 -8 0 -25 -15 -38 -32z m616 -25 c26
-29 29 -65 10 -99 -20 -34 -180 -173 -200 -174 -20 0 -16 38 14 122 45 133
128 203 176 151z m11 -537 c13 -53 8 -351 -7 -422 -25 -118 -76 -195 -148
-224 -30 -13 -33 -12 -55 14 -40 46 -34 127 22 288 26 73 55 153 66 178 32 73
99 190 108 190 4 0 11 -11 14 -24z m-428 -123 c-18 -306 -69 -502 -142 -550
-22 -14 -26 -14 -50 1 -36 24 -39 38 -27 141 13 110 44 202 124 372 94 198
104 202 95 36z"/>
<path d="M1450 1211 c-62 -33 -73 -53 -65 -116 6 -49 12 -61 55 -103 107 -104
214 -172 206 -129 -6 26 -19 47 -30 47 -12 0 -14 75 -2 102 14 31 2 82 -22 93
-12 5 -25 18 -28 27 -3 10 -10 18 -16 18 -6 0 -8 12 -5 29 5 26 3 31 -25 40
-17 6 -31 11 -32 11 -1 -1 -17 -9 -36 -19z"/>
<path d="M772 924 c43 -42 49 -61 33 -100 l-13 -29 -11 28 c-12 31 -26 37 -18
7 3 -11 0 -18 -6 -17 -6 1 -11 -3 -12 -10 0 -7 -6 -18 -13 -25 -11 -11 -16
-10 -28 6 -8 11 -14 26 -14 33 0 7 -4 13 -9 13 -5 0 -13 9 -16 20 -4 11 -11
18 -16 15 -13 -9 -11 -73 3 -77 6 -2 12 -15 14 -29 1 -13 3 -27 3 -31 1 -3 14
-13 31 -21 48 -25 130 4 130 46 0 6 6 15 14 21 11 9 11 23 1 80 -12 74 -37
105 -84 106 -24 0 -23 -1 11 -36z"/>
<path d="M4980 854 c-18 -5 -35 -33 -104 -169 -103 -202 -139 -321 -140 -457
-1 -83 2 -100 20 -125 23 -31 53 -40 83 -23 30 16 16 37 -21 32 -46 -7 -58 16
-58 112 0 56 7 104 24 156 27 86 151 368 172 390 27 27 36 -7 30 -109 -14
-235 -43 -391 -94 -502 -2 -4 4 -9 11 -12 21 -8 62 74 81 163 27 124 48 435
34 498 -6 28 -14 51 -17 51 -3 -1 -13 -3 -21 -5z"/>
<path d="M936 714 c-9 -8 -16 -22 -16 -29 0 -20 21 -30 31 -14 13 22 22 3 9
-22 -11 -19 -10 -21 3 -16 12 4 16 0 15 -16 0 -12 0 -33 1 -47 l2 -25 10 24
c7 17 15 22 30 18 16 -4 23 0 27 15 5 19 6 18 18 -8 12 -28 13 -27 7 16 -10
80 -40 120 -89 120 -18 0 -40 -7 -48 -16z"/>
<path d="M244 645 c-17 -13 -17 -14 -1 -15 14 0 17 -9 17 -45 0 -33 4 -45 15
-45 8 0 12 6 10 13 -3 6 6 25 20 41 l25 29 10 -29 c20 -52 17 -66 -14 -75 -18
-5 -35 -4 -42 2 -16 13 -25 -2 -31 -47 -5 -36 -5 -37 55 -36 52 1 59 7 78 66
21 67 9 105 -43 136 -40 24 -72 26 -99 5z"/>
<path d="M2342 581 c-26 -16 -42 -61 -30 -80 9 -15 6 -25 -17 -55 -15 -20 -31
-36 -36 -36 -5 0 -9 -6 -9 -14 0 -7 -7 -19 -15 -26 -8 -7 -15 -22 -15 -34 0
-11 -11 -34 -25 -51 l-24 -30 -2 35 c-1 19 -1 38 0 43 0 4 -4 7 -9 7 -5 0 -10
5 -10 11 0 6 7 8 16 5 8 -3 12 -2 9 3 -3 5 -1 13 5 16 13 8 -31 45 -54 45 -11
0 -14 7 -10 28 6 36 -1 44 -65 70 -75 31 -103 29 -125 -9 -13 -22 -23 -28 -34
-23 -42 17 -60 15 -76 -7 -24 -35 -20 -72 14 -114 16 -20 32 -46 36 -58 3 -12
22 -41 41 -64 85 -105 194 -143 415 -143 143 0 170 6 188 41 17 31 29 119 17
119 -6 0 -7 3 -4 6 10 10 -25 64 -41 64 -8 0 -12 6 -8 15 3 8 1 15 -5 15 -7 0
-10 14 -7 35 2 19 0 35 -4 35 -14 0 -8 28 7 34 8 3 15 10 15 16 0 6 -4 9 -9 6
-5 -3 -11 1 -15 9 -3 8 -17 15 -31 15 -36 0 -72 38 -66 73 1 9 -1 9 -17 -2z"/>
<path d="M830 297 c-12 -25 -22 -33 -48 -35 -21 -2 -38 -12 -48 -28 -11 -15
-21 -21 -28 -16 -6 5 -20 12 -30 16 -16 5 -17 4 -6 -9 10 -12 10 -15 -3 -15
-8 0 -18 -8 -21 -17 -5 -12 -10 -13 -18 -5 -6 6 -17 8 -25 5 -8 -3 -27 7 -43
22 -28 27 -28 27 -59 9 -29 -17 -31 -17 -51 1 -11 10 -18 25 -15 33 6 17 -13
44 -26 36 -5 -3 -18 0 -30 7 -17 9 -23 8 -30 -2 -34 -53 30 -171 86 -159 6 1
19 3 30 5 11 2 47 8 80 14 47 9 62 8 70 -2 18 -23 59 -47 82 -47 12 0 38 15
58 34 44 42 69 49 104 28 26 -15 30 -15 53 0 37 25 47 98 13 98 -7 0 -16 -6
-18 -12 -4 -10 -8 -9 -16 2 -16 22 -13 43 4 36 13 -4 14 -2 5 14 -17 31 -53
25 -70 -13z"/>
</g>
</svg>
